PathFileType	4	(X/Y/Z)	D:\TRACE\v60_Jaco2_6-2-23\BothDRS_Motion2_2-v60.trc
DataRate	CameraRate	NumFrames	NumMarkers	Units	OrigDataRate	OrigDataStartFrame	OrigNumFrames
100.00	100.00	      24	9	mm	100.00	5626	      7500
Frame#	Time	front left toe			Front right toe			aft left toe			aft right toe			Arm			FL body			FR body			AL Body			AR Body			
		X1	Y1	Z1	X2	Y2	Z2	X3	Y3	Z3	X4	Y4	Z4	X5	Y5	Z5	X6	Y6	Z6	X7	Y7	Z7	X8	Y8	Z8	X9	Y9	Z9	

5626	56.250	-158.41502	162.98079	-176.60065	199.27628	33.63247	-182.88731	-110.35474	-25.53654	468.68356	291.23767	93.00195	397.97708	213.12015	1109.06616	-531.51520	-65.39304	601.93854	-302.69504	94.27288	593.28754	-321.83911	44.74662	533.25928	634.90411	201.34874	520.61841	619.17157	
5627	56.260	-158.04346	156.85915	-177.76849	198.77930	33.73891	-182.77611	-110.82831	-25.65677	468.62732	291.00208	86.89275	396.54584	213.99207	1108.95667	-532.24243	-64.90270	602.35193	-303.45206	93.37952	593.49805	-322.28470	44.45336	533.07465	633.80792	199.07385	518.36237	615.09949	
5628	56.270	-157.78481	149.35356	-178.95518	198.34705	33.74324	-182.92876	-111.65712	-25.42512	468.60333	291.92331	80.16824	395.42874	215.05814	1108.69263	-532.63684	-64.52641	602.52429	-304.30704	94.59364	593.99835	-323.74911	44.96691	532.66370	633.17169	201.46255	519.35559	617.37537	
5629	56.280	-157.99171	140.91626	-179.89511	198.97720	33.97039	-182.77414	-112.43519	-25.48928	468.51569	292.30688	72.64395	394.27509	215.74675	1108.67053	-533.25751	-64.52136	602.70209	-304.95560	93.84578	593.59442	-323.92279	44.46638	532.68719	632.19867	201.46373	518.97247	616.90741	
5630	56.290	-158.08417	131.27188	-181.22804	197.40984	33.38186	-183.03009	-113.18932	-25.34842	468.54221	294.23932	64.89600	393.17001	216.57582	1108.80603	-533.84473	-63.90164	602.70056	-305.82309	94.55919	593.54932	-325.05267	44.84424	532.24011	631.68066	201.69618	518.58795	615.62616	
5631	56.300	-157.87814	121.07187	-182.40164	197.55338	33.53418	-182.87566	-113.74632	-25.11392	468.47290	293.68829	55.59265	391.57709	217.87276	1108.77625	-534.35571	-63.39433	602.80536	-306.40747	95.07662	593.71057	-325.60739	45.10868	532.55688	630.78223	201.66948	518.34558	615.06311	
5632	56.310	-156.90027	110.85298	-183.14415	196.55476	33.31703	-182.93462	-114.32420	-24.88199	468.42560	294.80630	46.50941	390.02490	218.76326	1108.85461	-534.83954	-63.05943	603.24585	-307.01697	95.94244	593.61810	-326.31036	45.36245	532.37054	630.38690	201.80812	518.15747	614.40106	
5633	56.320	-155.58257	100.26526	-183.81512	195.98221	33.18781	-183.03563	-115.04144	-24.77240	468.52011	294.81711	37.20984	388.92645	219.50783	1108.53223	-535.35999	-62.41756	603.40686	-307.54721	96.01278	593.94434	-326.75940	45.46995	532.20270	629.62939	200.21318	516.32910	611.22540	
5634	56.330	-154.08745	89.54456	-183.59389	195.42964	33.04759	-183.20351	-115.91014	-24.63179	468.43839	295.99805	28.34960	388.58057	220.94095	1108.27869	-535.65784	-62.09921	603.73993	-307.93994	96.52649	594.05859	-327.22641	45.91507	531.57611	629.20850	201.94167	516.91931	613.08856	
5635	56.340	-152.65675	78.99651	-183.29639	194.69092	32.97995	-183.25616	-116.76991	-24.46638	468.39365	295.25360	18.12004	388.54959	221.68692	1108.35010	-535.68707	-61.45417	603.84155	-308.42841	97.08602	594.22992	-327.84006	46.37905	531.59161	628.51050	202.40816	516.56714	612.69934	
5636	56.350	-151.72624	69.02997	-182.38362	194.07385	32.78773	-183.37428	-117.46229	-24.22224	468.31116	296.25864	10.25254	389.30057	222.59380	1108.71619	-535.75610	-60.85662	604.02655	-308.95422	97.70815	594.27484	-328.90033	46.88206	530.98547	628.66718	202.82484	516.12823	611.71204	
5637	56.360	-150.92267	60.23592	-181.30484	193.59413	32.59331	-183.54723	-118.38307	-23.82898	468.13339	296.80768	2.18605	390.95859	223.93141	1109.12085	-535.88654	-60.77060	604.41522	-309.58566	98.34484	594.22900	-328.92450	47.48536	530.70984	628.00208	202.67810	515.28320	610.03088	
5638	56.370	-150.16724	52.53714	-179.53009	192.79367	32.26303	-183.73607	-118.91190	-23.45793	468.13934	297.51053	-5.34276	392.87875	224.51686	1109.46399	-536.02161	-60.09175	604.40704	-309.85840	99.13885	594.19324	-329.13547	47.56159	530.66681	627.08960	203.17044	514.80188	609.69159	
5639	56.380	-148.73489	46.15187	-177.90352	191.99109	32.07347	-183.76819	-120.28035	-22.74654	468.04465	298.82550	-11.37690	394.95020	224.89246	1109.57837	-536.08490	-59.16085	604.24109	-310.28400	100.04990	594.11078	-329.48776	48.24077	530.19897	626.73663	203.39627	514.41803	609.41766	
5640	56.390	-147.40968	39.94143	-176.49779	191.21085	31.76755	-183.98332	-121.49794	-22.06690	467.75763	298.83325	-9.98406	391.76492	226.18089	1109.28589	-536.11230	-58.38184	603.98871	-310.51093	100.22906	593.96082	-329.50513	48.64206	529.62097	626.97198	204.05336	514.17499	609.06360	
5641	56.400	-149.66292	40.55106	-179.43660	190.42281	31.29336	-183.93089	-120.99565	-22.37350	467.90619	298.10583	-13.65677	392.57010	227.04137	1108.94897	-536.25311	-57.57708	603.56055	-310.62878	101.21133	593.74091	-329.76208	48.65642	530.34430	626.68958	204.35805	514.87140	608.98065	
5642	56.410	-150.03917	37.31860	-178.44585	189.71376	31.09875	-183.94821	-120.71387	-22.43262	468.01828	298.07077	-11.50161	392.01279	227.57365	1108.64832	-536.82825	-56.57454	603.88531	-310.40240	102.24557	593.96771	-329.78564	49.25965	531.36389	626.77954	205.20041	515.81702	608.89240	
5643	56.420	-151.52449	38.56331	-179.07289	189.02490	31.56313	-183.52383	-121.80956	-20.68534	468.11401	296.38550	-12.92926	393.38678	228.53816	1108.60864	-537.99939	-56.13663	605.18292	-310.54803	103.07093	594.63000	-329.48697	49.60094	532.00836	626.83289	204.99594	516.01178	609.04285	
5644	56.430	-151.48212	37.86786	-177.93288	187.82669	34.77846	-185.20253	-123.67954	-18.01213	466.64468	294.90515	-12.75469	393.90253	229.49297	1109.21179	-539.10065	-55.31305	606.91705	-310.54077	103.77187	596.15277	-329.43524	50.15121	532.03210	626.61713	205.20607	516.07019	608.83850	
5645	56.440	-151.88884	38.01127	-178.52910	183.87462	39.38247	-181.81433	-121.17154	-14.33530	465.74768	294.33902	-13.36349	393.17145	230.18129	1109.78662	-539.20020	-54.79707	608.50806	-311.01080	104.25742	597.84271	-329.99139	50.37172	531.35504	626.23248	206.17621	515.52881	608.90662	
5646	56.450	-153.22481	38.18506	-179.38980	181.38234	45.09442	-178.35371	-116.90867	-9.73829	468.68298	294.03998	-13.23607	393.32224	232.15297	1111.30017	-538.25220	-54.49035	609.78284	-311.66266	104.17767	598.65771	-330.84671	50.69752	531.01349	625.08801	205.89294	514.55963	607.31830	
5647	56.460	-154.30620	37.54733	-179.20488	179.92690	55.83980	-177.99010	-113.20868	0.17267	467.54373	293.43060	-13.19649	392.81601	233.89412	1113.42041	-537.66840	-54.81601	610.65240	-312.48920	104.30540	599.34778	-331.63818	50.80009	530.73718	624.26215	206.36302	514.22339	606.30475	
5648	56.470	-155.21399	37.00217	-179.44342	181.31673	67.24146	-179.04662	-111.10324	10.71990	465.90619	292.21167	-13.05148	392.92084	236.17863	1115.74695	-537.29095	-54.56479	610.86182	-313.18915	104.41233	599.60828	-332.45435	51.63469	530.12982	623.31854	206.84792	513.37970	605.47729	
5649	56.480	-156.34358	36.57381	-179.55713	183.88654	80.31503	-183.06107	-111.14861	23.32888	463.53619	291.26001	-12.82109	392.82327	238.53368	1116.72327	-537.46771	-54.92141	611.48096	-313.87231	104.21227	599.92773	-333.01688	52.36293	529.38391	623.13007	207.31984	512.73712	604.55957	
